# xmcd
#
# Track frame offsets:
#	183
#	16008
#	28730
#	45965
#	60245
#	74298
#	86553
#	101463
#	113003
#	124165
#	139178
#	147653
#	157913
#	168965
#	180845
#	191640
#	205593
#
# Disc length: 2954 seconds
#
# Revision: 0
# Processed by: cddbd v1.4PL0 Copyright (c) Steve Scherf et al.
# Submitted via: OrangeCD 4.1
#
DISCID=d40b8811
DTITLE=Billie Jo Spears - 16 Greatest Songs
DYEAR=1900
DGENRE=
TTITLE0=Blanket on the ground
TTITLE1=57 Chevrolet
TTITLE2=For the good times
TTITLE3=Crying time
TTITLE4=Blue bayou
TTITLE5=What I've got in mind
TTITLE6=Crystal chandeliers
TTITLE7=Silver threads and Golden needles
TTITLE8=Tennessee waltz
TTITLE9=It's a heartache
TTITLE10=Blue blue day
TTITLE11=I'm gonna be a country girl again
TTITLE12=Here you come again
TTITLE13=This ole house
TTITLE14=All I have to do is dream
TTITLE15=I'll never love like this again
TTITLE16=Queen of the silver dollar
EXTD=
EXTT0=
EXTT1=
EXTT2=
EXTT3=
EXTT4=
EXTT5=
EXTT6=
EXTT7=
EXTT8=
EXTT9=
EXTT10=
EXTT11=
EXTT12=
EXTT13=
EXTT14=
EXTT15=
EXTT16=
PLAYORDER=
